<svg width="29" height="25" viewBox="0 0 29 25" fill="none" xmlns="http://www.w3.org/2000/svg">
<path d="M1.02041 4.59184H27.551C28.1146 4.59184 28.5714 4.13501 28.5714 3.57143V1.02041C28.5714 0.456824 28.1146 0 27.551 0H1.02041C0.456824 0 0 0.456824 0 1.02041V3.57143C0 4.13501 0.456824 4.59184 1.02041 4.59184ZM1.02041 14.7959H27.551C28.1146 14.7959 28.5714 14.3391 28.5714 13.7755V11.2245C28.5714 10.6609 28.1146 10.2041 27.551 10.2041H1.02041C0.456824 10.2041 0 10.6609 0 11.2245V13.7755C0 14.3391 0.456824 14.7959 1.02041 14.7959ZM1.02041 25H27.551C28.1146 25 28.5714 24.5432 28.5714 23.9796V21.4286C28.5714 20.865 28.1146 20.4082 27.551 20.4082H1.02041C0.456824 20.4082 0 20.865 0 21.4286V23.9796C0 24.5432 0.456824 25 1.02041 25Z" fill="white"/>
</svg>
