<svg width="20" height="18" viewBox="0 0 20 18" fill="none" xmlns="http://www.w3.org/2000/svg">
<path d="M10.0013 0C4.47858 0 0.00259217 3.63625 0.00259217 8.12395C0.00259217 9.98308 0.779835 11.686 2.06873 13.0569C1.48677 14.5958 0.275994 15.9003 0.256466 15.9159C-0.00131357 16.1893 -0.071617 16.5877 0.0768013 16.9314C0.22522 17.2751 0.565019 17.4977 0.939971 17.4977C3.342 17.4977 5.23629 16.494 6.37286 15.6894C7.50162 16.0448 8.72021 16.2479 10.0013 16.2479C15.524 16.2479 20 12.6116 20 8.12395C20 3.63625 15.524 0 10.0013 0ZM10.0013 14.3731C8.95846 14.3731 7.92735 14.213 6.93919 13.9005L6.05259 13.6193L5.29097 14.1583C4.73245 14.5528 3.96692 14.9942 3.04517 15.291C3.33029 14.8184 3.60759 14.2872 3.82241 13.7209L4.23642 12.6234L3.43184 11.7719C2.7249 11.0181 1.87735 9.77217 1.87735 8.12395C1.87735 4.67908 5.52141 1.87476 10.0013 1.87476C14.4812 1.87476 18.1252 4.67908 18.1252 8.12395C18.1252 11.5688 14.4812 14.3731 10.0013 14.3731Z" fill="white"/>
</svg>
