<svg width="20" height="20" viewBox="0 0 20 20" fill="none" xmlns="http://www.w3.org/2000/svg">
<path d="M10 0C4.47714 0 0 4.47714 0 10C0 15.5229 4.47714 20 10 20C15.5229 20 20 15.5229 20 10C20 4.47714 15.5229 0 10 0ZM17.0039 4.82093L14.4475 7.37734C14.0044 6.62899 13.3721 5.99621 12.6227 5.55254L15.1791 2.99613C15.8736 3.51149 16.4885 4.12635 17.0039 4.82093ZM10 13.871C7.86214 13.871 6.12903 12.1379 6.12903 10C6.12903 7.86214 7.86214 6.12903 10 6.12903C12.1379 6.12903 13.871 7.86214 13.871 10C13.871 12.1379 12.1379 13.871 10 13.871ZM4.82093 2.99613L7.37734 5.55254C6.62899 5.99556 5.99621 6.62794 5.55254 7.37734L2.99613 4.82093C3.51148 4.12634 4.12634 3.51148 4.82093 2.99613ZM2.99613 15.1791L5.55254 12.6227C5.99556 13.371 6.62794 14.0038 7.37734 14.4475L4.82093 17.0039C4.12635 16.4885 3.51149 15.8736 2.99613 15.1791ZM15.1791 17.0039L12.6227 14.4475C13.371 14.0044 14.0038 13.3721 14.4475 12.6227L17.0039 15.1791C16.4885 15.8736 15.8736 16.4885 15.1791 17.0039Z" fill="white"/>
</svg>
