<svg width="34" height="30" viewBox="0 0 34 30" fill="none" xmlns="http://www.w3.org/2000/svg">
<path d="M33.4389 13.8439L30 10.807V2.8125C30 2.56386 29.9012 2.3254 29.7254 2.14959C29.5496 1.97377 29.3111 1.875 29.0625 1.875H25.3125C25.0639 1.875 24.8254 1.97377 24.6496 2.14959C24.4738 2.3254 24.375 2.56386 24.375 2.8125V5.84004L18.4441 0.603516C18.0762 0.270117 17.3748 0 16.875 0C16.3752 0 15.6762 0.270117 15.3082 0.603516L0.308203 13.8457C0.123388 14.0324 0.0136923 14.2806 0 14.543C0.0119748 14.7721 0.0958247 14.9917 0.239648 15.1705L1.49414 16.5645C1.68966 16.7399 1.93589 16.8487 2.19727 16.875C2.42387 16.8524 2.64022 16.7692 2.82363 16.6342L3.75527 15.8139V28.125C3.75527 28.6223 3.95282 29.0992 4.30445 29.4508C4.65608 29.8025 5.13299 30 5.63027 30H28.125C28.6223 30 29.0992 29.8025 29.4508 29.4508C29.8025 29.0992 30 28.6223 30 28.125V15.8133L30.9322 16.6336C31.1165 16.7684 31.3333 16.8517 31.5604 16.875C31.8194 16.8479 32.063 16.7389 32.2559 16.5639L33.5103 15.1688C33.645 14.9853 33.7278 14.7689 33.75 14.5424C33.7231 14.2824 33.6141 14.0378 33.4389 13.8439ZM16.875 10.3125C17.6167 10.3125 18.3417 10.5324 18.9584 10.9445C19.5751 11.3565 20.0557 11.9422 20.3395 12.6274C20.6234 13.3127 20.6976 14.0667 20.5529 14.7941C20.4083 15.5215 20.0511 16.1897 19.5266 16.7141C19.0022 17.2386 18.334 17.5958 17.6066 17.7404C16.8792 17.8851 16.1252 17.8109 15.4399 17.527C14.7547 17.2432 14.169 16.7626 13.757 16.1459C13.3449 15.5292 13.125 14.8042 13.125 14.0625C13.125 13.0679 13.5201 12.1141 14.2233 11.4108C14.9266 10.7076 15.8804 10.3125 16.875 10.3125ZM23.4375 26.25H10.3125C10.0639 26.25 9.8254 26.1512 9.64959 25.9754C9.47377 25.7996 9.375 25.5611 9.375 25.3125C9.375 23.8207 9.96763 22.3899 11.0225 21.335C12.0774 20.2801 13.5082 19.6875 15 19.6875H18.75C20.2418 19.6875 21.6726 20.2801 22.7275 21.335C23.7824 22.3899 24.375 23.8207 24.375 25.3125C24.375 25.5611 24.2762 25.7996 24.1004 25.9754C23.9246 26.1512 23.6861 26.25 23.4375 26.25Z" fill="black"/>
</svg>
