<svg width="18" height="20" viewBox="0 0 18 20" fill="none" xmlns="http://www.w3.org/2000/svg">
<path d="M17.4851 10.7509C17.814 10.194 18 9.6 18 8.88188C18 7.23131 16.6043 5.67262 14.7818 5.67262H13.4138C13.5983 5.19225 13.7456 4.61775 13.7456 3.92737C13.7456 1.1976 12.3323 0 10.173 0C7.86274 0 7.99451 3.55999 7.482 4.0725C6.62899 4.92551 5.62144 6.56426 4.9035 7.2H1.2C0.537262 7.2 0 7.73726 0 8.4V17.4C0 18.0627 0.537262 18.6 1.2 18.6H3.6C4.15849 18.6 4.6278 18.2185 4.76167 17.7019C6.43076 17.7394 7.57643 19.1996 11.4293 19.1996C11.7 19.1996 12 19.2 12.2625 19.2C15.1544 19.2 16.462 17.7216 16.4978 15.6251C16.9972 14.9342 17.259 14.008 17.148 13.113C17.5175 12.421 17.6604 11.6001 17.4851 10.7509ZM15.1695 12.7695C15.6405 13.5619 15.2168 14.6224 14.6468 14.9284C14.9355 16.7576 13.9865 17.3996 12.6547 17.3996H11.2365C8.55004 17.3996 6.81041 15.9814 4.8 15.9814V9H5.2095C6.273 9 7.75875 6.34162 8.75475 5.34525C9.81825 4.28175 9.46388 2.50912 10.173 1.8C11.9456 1.8 11.9456 3.03675 11.9456 3.92737C11.9456 5.39625 10.8821 6.05437 10.8821 7.47262H14.7818C15.5734 7.47262 16.1966 8.18175 16.2 8.89087C16.2034 9.59962 15.7193 10.3087 15.3649 10.3087C15.8707 10.8546 15.9788 12.0051 15.1695 12.7695ZM3.3 16.2C3.3 16.6971 2.89706 17.1 2.4 17.1C1.90294 17.1 1.5 16.6971 1.5 16.2C1.5 15.7029 1.90294 15.3 2.4 15.3C2.89706 15.3 3.3 15.7029 3.3 16.2Z" fill="white"/>
</svg>
