<svg width="20" height="16" viewBox="0 0 20 16" fill="none" xmlns="http://www.w3.org/2000/svg">
<path d="M14.4444 5.55556C14.4444 2.48611 11.2118 0 7.22222 0C3.23264 0 0 2.48611 0 5.55556C0 6.74653 0.489583 7.84375 1.31944 8.75C0.854167 9.79861 0.0868056 10.6319 0.0763889 10.6424C0 10.7222 -0.0208333 10.8403 0.0243056 10.9444C0.0694444 11.0486 0.166667 11.1111 0.277778 11.1111C1.54861 11.1111 2.60069 10.684 3.35764 10.2431C4.47569 10.7882 5.79861 11.1111 7.22222 11.1111C11.2118 11.1111 14.4444 8.625 14.4444 5.55556ZM18.6806 13.1944C19.5104 12.2917 20 11.191 20 10C20 7.67708 18.1424 5.6875 15.5104 4.85764C15.5417 5.0868 15.5556 5.31944 15.5556 5.55556C15.5556 9.23264 11.816 12.2222 7.22222 12.2222C6.84722 12.2222 6.48264 12.1944 6.12153 12.1562C7.21528 14.1528 9.78472 15.5556 12.7778 15.5556C14.2014 15.5556 15.5243 15.2361 16.6424 14.6875C17.3993 15.1285 18.4514 15.5556 19.7222 15.5556C19.8333 15.5556 19.934 15.4896 19.9757 15.3889C20.0208 15.2882 20 15.1701 19.9236 15.0868C19.9132 15.0764 19.1458 14.2465 18.6806 13.1944Z" fill="white"/>
</svg>
