<svg width="20" height="15" viewBox="0 0 20 15" fill="none" xmlns="http://www.w3.org/2000/svg">
<path d="M0 15V0H0.703125V15H0ZM1.0491 14.9893V0H1.40625V14.9893H1.0491ZM2.10938 14.9893V0H2.45535V14.9893H2.10938ZM3.8616 14.9893V0H4.20758V14.9893H3.8616ZM5.26785 14.9893V0H5.9598V14.9893H5.26785ZM7.02008 14.9893V0H7.36605V14.9893H7.02008ZM7.7232 14.9893V0H8.06918V14.9893H7.7232ZM8.42633 14.9893V0H8.7723V14.9893H8.42633ZM9.82145 14.9893V0H10.5246V14.9893H9.82145ZM11.5737 14.9893V0H12.2768V14.9893H11.5737ZM12.9799 14.9893V0H13.683V14.9893H12.9799ZM14.3862 14.9893V0H15.0893V14.9893H14.3862ZM15.4353 14.9893V0H16.1384V14.9893H15.4353ZM17.1987 14.9893V0H18.2478V14.9893H17.1987ZM18.5938 14.9893V0H18.9509V14.9893H18.5938ZM19.2969 15V0H20V15H19.2969Z" fill="white"/>
</svg>
