<svg width="20" height="23" viewBox="0 0 20 23" fill="none" xmlns="http://www.w3.org/2000/svg">
<path d="M17.8571 10H16.7857V6.78571C16.7857 3.04464 13.7411 0 10 0C6.25893 0 3.21429 3.04464 3.21429 6.78571V10H2.14286C0.959821 10 0 10.9598 0 12.1429V20.7143C0 21.8973 0.959821 22.8571 2.14286 22.8571H17.8571C19.0402 22.8571 20 21.8973 20 20.7143V12.1429C20 10.9598 19.0402 10 17.8571 10ZM13.2143 10H6.78571V6.78571C6.78571 5.01339 8.22768 3.57143 10 3.57143C11.7723 3.57143 13.2143 5.01339 13.2143 6.78571V10Z" fill="white"/>
</svg>
