<svg width="30" height="31" viewBox="0 0 30 31" fill="none" xmlns="http://www.w3.org/2000/svg">
<path d="M29.592 25.9414L23.7498 20.0991C23.4861 19.8354 23.1286 19.6889 22.7536 19.6889H21.7985C23.4158 17.6204 24.3768 15.0187 24.3768 12.1884C24.3768 5.45548 18.9213 0 12.1884 0C5.45548 0 0 5.45548 0 12.1884C0 18.9213 5.45548 24.3768 12.1884 24.3768C15.0187 24.3768 17.6204 23.4158 19.6889 21.7985V22.7536C19.6889 23.1286 19.8354 23.4861 20.0991 23.7498L25.9414 29.592C26.4922 30.1428 27.3829 30.1428 27.9278 29.592L29.5861 27.9337C30.137 27.3829 30.137 26.4922 29.592 25.9414ZM12.1884 19.6889C8.04551 19.6889 4.68784 16.3371 4.68784 12.1884C4.68784 8.04551 8.03965 4.68784 12.1884 4.68784C16.3313 4.68784 19.6889 8.03965 19.6889 12.1884C19.6889 16.3313 16.3371 19.6889 12.1884 19.6889Z" fill="black"/>
</svg>
